<svg version="1.1" id="Layer_1" xmlns="http://www.w3.org/2000/svg" xmlns:xlink="http://www.w3.org/1999/xlink" x="0px" y="0px" viewBox="0 0 205 68" style="enable-background:new 0 0 205 68;" xml:space="preserve">
 <style type="text/css">
  .st0{fill:#80BC00;}
	.st1{fill:#003B4D;}
	.st2{fill:#FFFFFF;}
 </style>
 <polygon class="st0" points="0,0 205,0 205,68 0,68 ">
 </polygon>
 <g>
  <path class="st1" d="M95.1,14.1c-0.4-2.7-2.1-1.9-1.8-2.8c0.1-0.3-0.2-1.5-2-1.5H57.2v19.8c0.7,0.1,1.3,0,1.9-0.4
		c1.1-1.3,2-3,3.8-3.3c0.5-0.1,1.2-0.1,1.5,0.3c-0.2,0.4-0.7,0.3-1.1,0.5c-1.2,0.3-2.3,1-3.1,2c-0.1,0.1,0,0.2,0.1,0.3
		c0.1,0,0.3,0,0.4-0.1c0.6-0.4,1.1-1,1.9-0.9c0.1,0,0.2,0.1,0.1,0.2c0,0,0,0,0,0.1c-0.5,0.4-1.1,0.8-1.7,1.1
		c-0.8,0.6-2.9,1.1-3.2,2.2c0.4,0.1,0.7,0.1,1.1,0.1c1,0.1,1.3-1.1,2-1.6c0.3-0.2,0.7-0.5,1-0.3c0,0.2-0.1,0.3-0.1,0.4
		c-0.9,0.9-2,1.5-2.9,2.5c-0.3,0.3-1.5,0.6-1.6,1v3.7c1.1-1.4,2.4-2.6,3.9-3.5c0.1,0,0.4-0.1,0.5,0.1s0,0.5,0,0.7
		c-0.5,1-1.3,1.8-1.8,2.8c0-0.4,0.1-0.9,0.3-1.2c0-0.1,0.1-0.2,0-0.3c-0.4,0-0.6,0.5-0.7,0.7c-0.5,1.2-1.9,2.5-2.2,3.8v16.7h10.8
		c0.7-0.6,1.3-1.2,1.7-2c0.5-0.7,0.6-1.6,1.2-2.2c0.1,0,0.2-0.1,0.3,0c0.2,0.7,0.2,1.5-0.2,2.2c-0.2,0.4-0.5,0.8-0.6,1.3
		c0,0.1,0.3,0.1,0.4,0c1.1-0.9,1.3-2.4,1.6-3.8c0,0,0-0.2,0.2-0.2c0.2,0,0.1,0.5,0,0.7c0,0.2-0.2,0.4-0.1,0.6
		c0.5,0.2,0.6-0.6,0.8-0.9c0.1,0,0.2,0.1,0.2,0.2c0.1,0.7-0.2,1.4-0.7,1.8c-0.2,0.2-0.6,0.3-0.5,0.6s0.4,0.2,0.6,0.1
		c0.1,0,0.1,0.1,0,0.2c-0.4,0.5-0.8,1-1.3,1.4h2c1.1-0.7,2.1-1.6,2.9-2.6l0,0h0.1c0.5-0.8,1-1.5,1.6-2.3c0.6-0.8,0.8-1.8,0.7-2.8
		c-0.2-0.6-0.9-0.3-1.4-0.3c-0.3-0.1-0.5-0.3-0.7-0.5c-0.1-0.2,0-0.4-0.2-0.5c-0.5-0.1-0.9,0.3-1.2,0.6c-0.1,0.1-0.3,0.2-0.4,0.1
		c0-1,0.9-1.5,1-2.4c0-0.2-0.2-0.3-0.3-0.4c-0.7,0-1,0.7-1.4,1h-0.2c-0.1-0.2-0.2-0.4-0.1-0.5c0.1-0.6,0.4-1.2,0.8-1.6
		c1.5-2.3,4.8-2.3,4.8-2.3c3.1,0,5.1,2,5.6,2c0.3-0.1,0.4-0.4,0.4-0.7c0-0.4-0.2-0.9-0.5-0.9s0.2,0.4-0.5,0.2
		c-2.7-0.6-4.6-2.5-4.5-4.2s-0.2-2.5,2.9-3.8c0.5-0.2,1.1-0.2,1-1.4c0,0-0.1-0.4-0.3-0.4c-0.2,0-0.3,0.1-0.3,0.3c0,0,0,0,0,0
		c0,0,0.2,0.3-0.3,0.3s-0.2-0.5-1.2-0.5c-0.4,0-0.8,0-1.1,0.2c-0.4,0.1-0.8,0.2-1.2,0.2c-0.4,0-0.8,0-1.2-0.2
		c-0.4-0.1-0.8-0.2-1.2-0.2c-1,0-0.9,0.5-1.2,0.5c-0.2,0-0.3-0.2-0.2-0.4c0-0.2,0.2-0.2-0.5-0.7c-0.3-0.2-0.4-0.7-0.2-1
		c0.4-0.6,0.6-1.3,0.7-2c0.1-0.8-1.3-2.5-1.6-3c-0.5-0.9,0-1.2-1.7-1.4c-1.1,0-2.1-0.8-2.3-1.9c0-0.1,0-0.3,0.3-0.1
		c0.6,0.3,1.1,1.4,2,1.4c0.9,0,2,0.2,2.1,0.6c0.4,0.8,0.9,1,1.1,1c0.7,0-0.2-1.4,0-1.7s0.4-0.1,0.6-0.1c0.6,0.1,1.2,0.4,1.6,0.9
		c0.1,0.1,0.6,0.1,0.6-0.2c0.3-1.3,0.8-1.2,1.4-1.2s0.6,0.1,0.6,0.8c0,0.3,0.2,0.5,0.4,0.6c0.1,0,0.2,0,0.3,0
		c0.6-0.1,0.8-1.3,1.4-1.3c0.2,0,0.2,0,0.3,0.1s-0.5,0.6-0.3,0.9s0.3-0.1,0.5-0.1c0.4,0.2,0.2,1.2,0.6,1.2s0.5-0.4,0.8-0.8
		c0.2-0.3,0.5-0.5,0.9-0.6c1-0.3,1.9-0.6,2.8-1c2-1.1,0.8-4.2-0.9-6.1c-0.4-0.5,0.2-0.9,0.7-0.4c1,1,1.5,2.5,2.2,2.5
		c1.3-0.2,2.6-0.7,3.7-1.5C94.8,17.3,95.3,15.7,95.1,14.1 M71.1,38.3c0.7-1.3,3.4-3.4,4.8-3c1.6,0.4,2.7,1.8,2.8,3.4
		c0.3,3-3.5,4.7-3.7,4.6c-0.2-0.1,0-0.3,0-0.4c0-0.1-0.1-0.2-0.2-0.2c-0.8,0-0.9,1.2-1.4,1.6c-0.2,0-0.3-0.1-0.4-0.2
		c-0.3-0.5,0.5-0.5,0.6-0.8s0.1-0.6-0.1-0.7c-0.2-0.1-0.4-0.1-0.6,0c-0.3,0.2-0.3,0.8-0.7,0.7c-0.1-0.2-0.2-0.4-0.2-0.7
		c0.4-0.5,1.2-0.4,1.2-1.2c0-0.5,0.4-0.4,0.7-0.5c0.2-0.1,0.3-0.4,0.4-0.7c0.2-0.5,0.7-0.5,0.8-0.8c0-0.2-0.1-0.4-0.2-0.5
		c-0.2,0-0.5,0-0.6,0.2c-0.1,0.1-0.1,0.4-0.3,0.5c-0.2,0.1-0.5,0.2-0.7,0.2c-0.4,0.1-0.4,0.5-0.4,0.8c0,0.2-0.4,0.1-0.6,0.2
		c-0.3,0.1-0.4,0.5-0.6,0.8c0,0,0,0.1-0.1,0.1s-0.3-0.2-0.4-0.2c-0.1-0.1-0.2-0.2-0.1-0.3c0.1-0.1,0.1-0.1,0.2-0.1
		c0.2-0.1,0.4-0.3,0.3-0.6c-0.1-0.4,0.4-0.6,0.4-0.7c0-0.2,0-0.3-0.2-0.4c-0.3-0.2-0.6,0.2-0.9,0.3c-0.1,0-0.3-0.1-0.3-0.2
		C70.7,39.1,70.8,38.7,71.1,38.3 M68.1,11.3c1.5,0.3,2.8,1.2,3.7,2.4c0.7,1.1,1,2.6,2.3,3.3c0.2,0.2,0.4,0.3,0.6,0.4
		c-0.3,0-0.6-0.1-0.8-0.2c-0.1,0-0.2-0.2-0.4-0.1s0,0.1-0.1,0.2c0,0.1,0.2,0.2,0.3,0.3c-0.1,0.1-0.1,0.1-0.2,0.2
		c-1.3-0.5-1.5-2-2.2-3.1c-0.3-0.6-0.7-1.2-1.3-1.6c-0.1,0-0.2,0-0.2,0.1c0.1,0.3,0.4,0.5,0.5,0.7c0.4,0.6,0.7,1.3,0.7,2.1
		c-0.1,0.1,0,0.2-0.2,0.2c-0.2,0-0.4-0.1-0.4-0.2c-0.7-0.9-0.7-2.2-1.7-3c0,0,0,0-0.1,0c-0.3,0.3,0,0.7,0,1.1v0.3
		c-0.4-1-1.2-1.9-2.2-2.4c-1.3-0.2-2.7,0.1-3.7,1c0,0-0.1,0-0.1,0c0,0,0-0.1,0-0.1C62.8,12.3,63.8,10.4,68.1,11.3 M67.4,17.8
		c-1.5-0.6-2.9-1.3-4.3-2.1c-0.3-0.1-0.6-0.2-0.8,0s0.2,0.3,0.3,0.5c-0.7-0.1-1.4,0-2,0.2c-0.1,0-0.3,0-0.4-0.1
		c0-0.3,0.3-0.6,0.5-0.9c0.6-0.6,1.5-0.9,2.3-0.8l0,0l0,0c0.9,0,1.8,0.3,2.6,0.8c1.2,0.7,2.2,1.9,3.4,2.7c-0.6-0.1-1.2-0.2-1.7-0.4
		 M76.2,21.8c0.1,0.6-0.3,2-0.5,2c-0.4,0-0.4-0.4-0.5-1c-0.1-0.6,0.4-1.4-0.1-1.6c-0.8,0-0.4,1.3-1.1,1.3c-0.3,0-0.7-0.4-1.1-0.5
		c-2.2-0.6-3.1,1.2-3.5,1.1c-0.8-0.2-0.2-0.7,0-0.9c0.8-0.8,1.9-1.4,3.1-1.6c0.9-0.2,1.5-0.8,2.8-0.8C76.4,20,76.1,21.2,76.2,21.8
		 M87.7,21.5c0.2,0.1,0.4,0.4,0.3,0.6c-0.1,0.3-0.3,0.1-0.5,0c-0.8-0.4-1.8-0.3-2.6,0.2c-0.6,0.3-0.7-0.2-0.9-0.7
		c-0.1-0.2-0.3-0.5-0.5-0.4s-0.1,0.6,0,0.8c0.1,0.4-0.1,0.9-0.5,1.1c-0.3,0-0.3-0.2-0.5-0.4C82,22,81.8,20.3,82.8,20
		c1-0.3,2,0,2.8,0.6C86.2,21,86.9,21.3,87.7,21.5 M87.7,13.2c0.6-0.9,1.7-1.4,2.8-1.1c0.4,0.1,0.8,0.3,1.2,0.6
		c0,0.3,0.4,0.3,0.4,0.6l0,0C90.8,12.8,89,12.4,87.7,13.2 M91.3,15.9c-0.6,0-1.1-0.2-1.7-0.4c0.8-0.4,2.1-1.2,2.7-0.1
		C92.3,15.8,91.7,15.8,91.3,15.9">
  </path>
  <polygon class="st2" points="112.2,44.8 107.1,44.8 99.8,34.3 99.8,44.8 95.5,44.8 95.5,22.4 99.8,22.4 99.8,31.9 107.6,22.4 
		111.6,22.4 103.6,32.3 	">
  </polygon>
  <path class="st2" d="M123.6,45.2c-7.1,0-11-4.1-11-11.6c0-3.6,0.8-6.5,2.5-8.5c1.8-2,4.4-3.1,7.1-3c1.9,0.1,3.8,0.4,5.7,0.7
		l0.7,0.1v4.2l-3.4-2c-0.9-0.5-2-0.7-3-0.7h-0.1c-4.3,0-4.9,5-5,9.3c-0.1,3.6,0.7,6.4,2.2,7.9c1,1,2.4,1.5,3.9,1.5
		c1.6,0,3.2-0.5,4.5-1.4l1.6-1.1l-0.6,3.7l-0.4,0.2C126.7,45,125.1,45.2,123.6,45.2">
  </path>
  <path class="st2" d="M140.6,44.8h-7.8V22.4h7.2c1.6-0.1,3.3,0.2,4.7,1c1.5,1,2.3,2.7,2.1,4.4c0.1,1.4-0.4,2.7-1.4,3.8l-0.6,0.6
		l0.6,0.5c1.6,1.3,2.4,3.4,2.3,5.5c0.1,1.9-0.8,3.8-2.3,5C144.2,44.2,142.4,44.8,140.6,44.8 M137.2,42.5h2.1c3.3,0,4.3-1.1,4.3-4.6
		c0-1.9-1.4-3.4-3.3-3.5c-0.1,0-0.2,0-0.4,0h-2.7V42.5z M137.2,31h2.2c0.7,0,1.4-0.1,2-0.5c0.8-0.6,1.2-1.6,1.1-2.6
		c0-3.1-1.7-3.4-3.5-3.4h-1.8V31z">
  </path>
 </g>
</svg>